<svg xmlns="http://www.w3.org/2000/svg" style="display:none;">

  <!-- ============================================================ -->
  <!-- EXISTING VERIYO ICONS (unchanged, carried over from icons.svg) -->
  <!-- ============================================================ -->

  <!-- HOME: solid house with roof, walls, and door -->
  <symbol id="icon-home" viewBox="0 0 24 24" fill="currentColor">
    <path d="M12 2.1L1 11h3v11h6v-7h4v7h6V11h3L12 2.1zm0 2.6l7 6.3V20h-3v-7H8v7H5V11l7-6.3z"/>
    <path d="M12 3L2 11.5h2.5V21h5.5v-6.5h4V21h5.5V11.5H22L12 3z"/>
  </symbol>

  <!-- PRICES: bold Rand R in a solid circle -->
  <symbol id="icon-prices" viewBox="0 0 24 24" fill="currentColor">
    <path d="M11.5 2c-5.25 0-9.5 4.25-9.5 9.5S6.25 21 11.5 21 21 16.75 21 11.5 16.75 2 11.5 2zm1.25 14.5v1.25h-2.5V16.5c-1.5-.25-2.75-1-3.5-2.25l1.75-1c.5.75 1.25 1.25 2.25 1.25.75 0 1.5-.5 1.5-1.25 0-.5-.25-.75-1.75-1.25-2-.75-3.25-1.5-3.25-3.25 0-1.5 1.25-2.75 3-3V4.25h2.5V5.5c1.25.25 2.25 1 2.75 2l-1.75 1c-.25-.75-.75-1.25-1.75-1.25-.75 0-1.25.5-1.25 1s.25.75 1.75 1.25c2.25.75 3.25 1.75 3.25 3.25 0 1.75-1.25 3-3 3.25z"/>
  </symbol>

  <!-- REPORT: solid clipboard with lines -->
  <symbol id="icon-report" viewBox="0 0 24 24" fill="currentColor">
    <path d="M19 3h-4.18C14.4 1.84 13.3 1 12 1s-2.4.84-2.82 2H5a2 2 0 00-2 2v16a2 2 0 002 2h14a2 2 0 002-2V5a2 2 0 00-2-2zm-7 0a1 1 0 110 2 1 1 0 010-2zm-2 14H7v-2h3v2zm6 0h-4v-2h4v2zm0-4H7v-2h9v2zm0-4H7V7h9v2z"/>
  </symbol>

  <!-- WORKSHOPS: solid wrench -->
  <symbol id="icon-workshops" viewBox="0 0 105.01 122.88" fill="currentColor">
    <path fill-rule="evenodd" clip-rule="evenodd" d="M.59,97C-.88,102.74.45,109.21,4,114.77c4.54-23.64,32.37-13.59,18.08,8.11,12.37-1,19.05-10.55,18.79-22.31-.12-5.54,0-8.55.87-11.07a13.16,13.16,0,0,1,1.67-3.21,11.5,11.5,0,0,1-.91-4.42v-.29a11.73,11.73,0,0,1,1.2-5l-7.43-7.23-2.06,2.73a53.12,53.12,0,0,1-6.66,6.63,18.68,18.68,0,0,1-4.59,2.07C13,84.19,3.65,85.11.59,97Zm58.16-21-44-42.84-6-1.06a3.65,3.65,0,0,1-1.9-1l-5.11-5a3.65,3.65,0,0,1-.07-5.15l6.17-6.23a3.64,3.64,0,0,1,5.14,0l4.53,4.49a3.58,3.58,0,0,1,1,1.83l2,7.31L64,70.79l4.43-4.46a.7.7,0,0,1,1,0l2.89,2.86a.7.7,0,0,1,.21.45c.12.89.19,1.61.26,2.22.15,1.49.23,2.24.5,2.5s1,.3,2.45.4h0c.62,0,1.37.1,2.37.2a.67.67,0,0,1,.43.2l22.22,22.4A11.49,11.49,0,0,1,104.44,110a11.87,11.87,0,0,1-2.59,4.42,11,11,0,0,1-4.22,2.85c-3.75,1.39-8.44.66-12.87-3.81L63.53,92a.76.76,0,0,1-.21-.44c-.18-1.21-.29-2.19-.38-3-.19-1.61-.29-2.45-.61-2.76s-1.26-.37-3.14-.43c-.65,0-1.41,0-2.3-.09a.7.7,0,0,1-.46-.2l-2.84-2.81a.71.71,0,0,1,0-1l5.17-5.22ZM70.29,90.64a1.76,1.76,0,0,1,0-2.5,1.78,1.78,0,0,1,2.51,0L92,107.6a1.77,1.77,0,0,1-2.5,2.52L70.29,90.64Zm5.28-5.34a1.77,1.77,0,0,1,2.49-2.52l19.25,19.48a1.77,1.77,0,1,1-2.49,2.52L75.57,85.3ZM67,55.36l5.94-7.77c7.15-9.71,25.79-4,30.36-21.75,1.46-5.7.13-12.16-3.39-17.73C95.37,31.75,67.55,21.7,81.84,0,69.47,1,62.79,10.55,63.05,22.31c.12,5.16,1.57,9.37-3.32,15.91L54,45.83,64.5,56.06a11.47,11.47,0,0,1,2.5-.7Z"/>
  </symbol>

  <!-- OVERVIEW: solid bar chart, 3 bars increasing height -->
<symbol id="icon-chart-growth"
        viewBox="0 0 24 24"
        fill="none"
        stroke="currentColor"
        stroke-width="2"
        stroke-linecap="round"
        stroke-linejoin="round">
    <path d="M13 17V9"/>
    <path d="M18 17V5"/>
    <path d="M3 3v16a2 2 0 0 0 2 2h16"/>
    <path d="M8 17v-3"/>
</symbol>

  <!-- LISTING: solid ID card with avatar circle and text lines -->
  <symbol id="icon-listing" viewBox="0 0 24 24" fill="currentColor">
    <path d="M20 4H4a2 2 0 00-2 2v12a2 2 0 002 2h16a2 2 0 002-2V6a2 2 0 00-2-2zM8 13a2.5 2.5 0 110-5 2.5 2.5 0 010 5zm8-1h-4v-2h4v2zm0-3h-4V7h4v2z"/>
  </symbol>

  <!-- ADD LISTING: solid circle with bold plus -->
  <symbol id="icon-addlisting" viewBox="0 0 24 24" fill="currentColor">
    <path d="M12 2C6.477 2 2 6.477 2 12s4.477 10 10 10 10-4.477 10-10S17.523 2 12 2zm5 11h-4v4h-2v-4H7v-2h4V7h2v4h4v2z"/>
  </symbol>

  <!-- STAR: solid 5-point star, used for the rating badge -->
  <symbol id="icon-star" viewBox="0 0 24 24" fill="currentColor">
    <path d="M12 2.5l2.9 6.1 6.6.9-4.8 4.7 1.2 6.6L12 17.6l-5.9 3.2 1.2-6.6-4.8-4.7 6.6-.9L12 2.5z"/>
  </symbol>

  <!-- LOCATION: solid map pin -->
  <symbol id="icon-location" viewBox="0 0 24 24" fill="currentColor">
    <path d="M12 2C7.58 2 4 5.58 4 10c0 5.25 6.4 11.36 7.16 12.06.24.22.62.22.86 0C13.6 21.36 20 15.25 20 10c0-4.42-3.58-8-8-8zm0 10.5A2.5 2.5 0 1112 7.5a2.5 2.5 0 010 5z"/>
  </symbol>

  <!-- CLOCK: solid ring with hour/minute hands -->
  <symbol id="icon-clock" viewBox="0 0 24 24" fill="none" stroke="currentColor" stroke-width="2.2" stroke-linecap="round" stroke-linejoin="round">
    <circle cx="12" cy="12" r="8"/>
    <path d="M12 12V8"/>
    <path d="M12 12L15.5 14.5"/>
    <circle cx="12" cy="12" r="0.8" fill="currentColor" stroke="none"/>
  </symbol>

  <!-- CALENDAR: page with two hanger rings and a 3x2 grid of 6 dots -->
  <symbol id="icon-calendar" viewBox="0 0 24 24" fill="none" stroke="currentColor" stroke-width="2.2" stroke-linecap="round" stroke-linejoin="round">
    <rect x="3" y="5" width="18" height="16" rx="2"/>
    <path d="M8 3v4M16 3v4M3 9h18"/>
    <circle cx="8" cy="13" r="0.8" fill="currentColor" stroke="none"/>
    <circle cx="12" cy="13" r="0.8" fill="currentColor" stroke="none"/>
    <circle cx="16" cy="13" r="0.8" fill="currentColor" stroke="none"/>
    <circle cx="8" cy="17" r="0.8" fill="currentColor" stroke="none"/>
    <circle cx="12" cy="17" r="0.8" fill="currentColor" stroke="none"/>
    <circle cx="16" cy="17" r="0.8" fill="currentColor" stroke="none"/>
  </symbol>

  <!-- CHAT: solid speech bubble with tail -->
  <symbol id="icon-chat" viewBox="0 0 122.88 108.25" fill="currentColor">
    <path fill-rule="evenodd" clip-rule="evenodd" d="M51.16,93.74c13,12.49,31.27,16.27,49.59,8.46l15.37,6L111,96.13c17.08-13.68,14-32.48,1.44-45.3a44.38,44.38,0,0,1-4.88,13.92A51.45,51.45,0,0,1,93.45,80.84a62.51,62.51,0,0,1-19.73,10,71.07,71.07,0,0,1-22.56,2.92ZM74.74,36.13a6.68,6.68,0,1,1-6.68,6.68,6.68,6.68,0,0,1,6.68-6.68Zm-44.15,0a6.68,6.68,0,1,1-6.68,6.68,6.68,6.68,0,0,1,6.68-6.68Zm22.08,0A6.68,6.68,0,1,1,46,42.81a6.68,6.68,0,0,1,6.68-6.68ZM54,0H54c14.42.44,27.35,5.56,36.6,13.49,9.41,8.07,15,19,14.7,31v0c-.36,12-6.66,22.61-16.55,30.11C79,82.05,65.8,86.4,51.38,86a64.68,64.68,0,0,1-11.67-1.4,61,61,0,0,1-10-3.07L7.15,90.37l7.54-17.92A43.85,43.85,0,0,1,4,59,36.2,36.2,0,0,1,0,41.46c.36-12,6.66-22.61,16.55-30.12C26.3,4,39.53-.4,54,0ZM53.86,5.2h0C40.59,4.82,28.52,8.77,19.69,15.46,11,22,5.5,31.28,5.19,41.6A31.2,31.2,0,0,0,8.61,56.67a39.31,39.31,0,0,0,10.81,13L21,70.87,16.68,81.05l13.08-5.14,1,.42a55.59,55.59,0,0,0,10.05,3.18A59,59,0,0,0,51.52,80.8c13.22.39,25.29-3.56,34.12-10.26C94.31,64,99.83,54.73,100.15,44.4v0c.3-10.32-4.65-19.85-12.9-26.92C78.85,10.26,67.06,5.6,53.87,5.2Z"/>
  </symbol>

  <!-- TAG: solid price tag with hole -->
  <symbol id="icon-tag" viewBox="0 0 24 24" fill="currentColor">
    <path d="M20.6 11.1L12.9 3.4A2 2 0 0011.5 2.8H4a2 2 0 00-2 2v7.5c0 .53.21 1.04.59 1.41l7.7 7.7c.78.78 2.05.78 2.83 0l7.48-7.48c.78-.78.78-2.05 0-2.83zM7 8a1.5 1.5 0 110-3 1.5 1.5 0 010 3z"/>
  </symbol>

  <!-- PEOPLE: two overlapping figures, line style -->
<symbol id="icon-people"
        viewBox="0 0 24 24"
        fill="none"
        stroke="currentColor"
        stroke-width="2"
        stroke-linecap="round"
        stroke-linejoin="round">
    <path d="M16 21v-2a4 4 0 0 0-4-4H6a4 4 0 0 0-4 4v2"/>
    <path d="M16 3.128a4 4 0 0 1 0 7.744"/>
    <path d="M22 21v-2a4 4 0 0 0-3-3.87"/>
    <circle cx="9" cy="7" r="4"/>
</symbol>

  <!-- CHEVRON DOWN: accordion toggle indicator -->
  <symbol id="icon-chevron-down" viewBox="0 0 24 24" fill="currentColor">
    <path d="M12 15.3L5.7 9l1.4-1.4L12 12.5l4.9-4.9L18.3 9z"/>
  </symbol>

  <!-- ============================================================ -->
  <!-- NEW ICONS — designed to match the icon set above             -->
  <!-- (needed for the Motorist / Workshop landing + dashboard mocks) -->
  <!-- ============================================================ -->

  <!-- SEARCH: magnifying glass, used for "Check Repair Prices" + search bars -->
  <symbol id="icon-search" viewBox="0 0 24 24" fill="none" stroke="currentColor" stroke-width="2.2" stroke-linecap="round" stroke-linejoin="round">
    <circle cx="10.5" cy="10.5" r="6.5"/>
    <path d="M19.5 19.5l-4.8-4.8"/>
  </symbol>

  <!-- BELL: notification bell, used in navbar -->
  <symbol id="icon-bell" viewBox="0 0 24 24" fill="currentColor">
    <path d="M12 2.5a1.25 1.25 0 00-1.25 1.25v.55C7.9 4.85 6 7.3 6 10.2v4.1l-1.6 2.4a1 1 0 00.83 1.55h13.54a1 1 0 00.83-1.55L18 14.3v-4.1c0-2.9-1.9-5.35-4.75-5.9v-.55A1.25 1.25 0 0012 2.5zm0 19a2.4 2.4 0 002.35-2H9.65A2.4 2.4 0 0012 21.5z"/>
  </symbol>

  <!-- USER: generic profile avatar placeholder -->
  <symbol id="icon-user" viewBox="0 0 24 24" fill="currentColor">
    <path d="M12 12.5a5 5 0 100-10 5 5 0 000 10zm0 2c-4.4 0-9 2.2-9 5.5V21a1 1 0 001 1h16a1 1 0 001-1v-1c0-3.3-4.6-5.5-9-5.5z"/>
  </symbol>

  <!-- PIGGY BANK: "Save Money" -->
  <symbol id="icon-piggybank" viewBox="0 0 122.88 114.25" fill="currentColor">
    <path fill-rule="evenodd" clip-rule="evenodd" d="M49.94,0c12.75,0,23.08,10.33,23.08,23.08c0,1.75-0.2,3.45-0.56,5.09c0.61,0.07,1.22,0.14,1.82,0.22 c0.96,0.13,1.92,0.26,2.86,0.41l0.25,0.06c0.36,0.12,0.7,0.19,1.01,0.21c0.34,0.02,0.66,0,0.96-0.06c0.86-0.17,2.14-0.97,3.52-1.83 c1.54-0.96,3.19-1.98,4.94-2.57c1.18-0.4,5.3-0.67,9.22-0.75c4.46-0.1,8.89,0.28,9.34,1.18c0.35,0.69,0.57,1.58,0.49,2.57 c-0.06,0.79-0.31,1.64-0.82,2.5c-1.17,1.97-3.28,3.43-5.28,4.8c-2.03,1.39-3.89,2.67-3.58,3.63c0.02,0.08,0.22,0.25,0.52,0.49 c0.44,0.35,1.08,0.76,1.75,1.17c2.69,1.64,4.79,3.38,6.57,5.43c1.76,2.03,3.22,4.35,4.65,7.2c0.42,0.83,0.82,1.68,1.2,2.56 c0.41,0.94,0.8,1.89,1.17,2.85l0.08,0.31c0.22,1.31,0.51,2.31,0.9,2.92c0.19,0.3,0.37,0.45,0.54,0.45l0.05-0.01h2.1 c0.34,0,0.61-0.02,0.85-0.03c2-0.14,3.12-0.21,4.29,2.79c0.81,2.08,1.08,4.98,0.96,7.87c-0.13,3.11-0.7,6.28-1.53,8.45 c-0.3,1.43-0.95,2.57-1.96,3.41c-1.01,0.83-2.33,1.33-3.98,1.46l-0.13,0.01h-2.34c-1.02,0-1.91-0.04-2.57-0.06 c-0.63-0.02-0.76-0.11-0.84-0.07c-0.12,0.06,0.03,0.07-0.14,0.29c-0.42,0.58-1.09,1.5-2.5,2.96c-1.01,1.04-2.18,2.19-3.3,3.25 c-1.04,0.98-2.08,1.91-2.94,2.63l-0.53,0.44c-0.97,0.8-1.44,1.19-1.46,1.31c-0.04,0.23,0.25,0.93,0.82,2.3 c0.24,0.58,0.39,0.93,0.44,1.06c0.57,1.4,1.14,2.76,1.66,3.95c0.87,2.01,1.83,4.13,2.14,4.83l0.03,0.07 c0.71,1.8,0.55,3.17-0.44,4.15c-0.84,0.83-2.17,1.15-3.97,1.01h-8.43c-1.18,0.08-2.3-0.17-3.35-0.77c-1-0.57-1.91-1.43-2.73-2.58 l-0.08-0.13c-0.31-0.54-0.63-1.25-0.97-2.01c-0.83-1.84-1.85-4.13-2.68-3.8c-5.72,2.23-11.31,3.56-17.36,3.76 c-5.98,0.2-12.38-0.7-19.77-2.94c-2.12-0.3-2.55,0.6-3.23,2.02c-0.19,0.4-0.39,0.83-0.67,1.36l0,0c-0.17,0.35-0.23,0.49-0.3,0.62 c-0.98,2.09-1.92,4.11-4.85,4.7l-0.32,0.03l-10.89-0.08h-0.11c-0.67-0.05-1.26-0.2-1.78-0.48c-0.6-0.31-1.06-0.76-1.39-1.36 c-0.97-1.77-0.32-3.11,0.34-4.46l-0.01,0c0.11-0.23,0.23-0.47,0.26-0.53l0.01-0.01l3.83-8.38l0.07-0.14 c0.4-0.69,0.55-1.26,0.46-1.7c-0.09-0.43-0.41-0.85-0.94-1.26l0,0c-0.76-0.54-1.5-1.1-2.21-1.67c-0.74-0.59-1.44-1.2-2.12-1.82 c-2.25-2.06-4.33-4.48-6.11-7.14c-1.71-2.55-3.15-5.33-4.19-8.23c-0.81-2.27-1.38-4.6-1.66-6.94c-0.06-0.54-0.11-1.09-0.14-1.63 c-3.53-1.7-6.02-4.73-7.22-8.73c-1.21-4.07-1.06-9.13,0.74-14.77l3.06,0.98c-1.6,4.99-1.75,9.4-0.72,12.87 c0.77,2.56,2.2,4.61,4.19,5.98c0.04-0.48,0.1-0.97,0.17-1.45c0.76-5.24,2.79-10.12,5.69-14.45c3.11-4.63,7.21-8.62,11.81-11.71 c0.78-0.52,1.59-1.03,2.42-1.52c0.61-0.36,1.21-0.69,1.79-1c-1.96-3.39-3.07-7.32-3.07-11.52C26.86,10.33,37.19,0,49.94,0L49.94,0z M94.57,56.18c1.44,0,2.74,0.58,3.68,1.52c0.94,0.94,1.52,2.24,1.52,3.68c0,1.44-0.58,2.74-1.52,3.68 c-0.94,0.94-2.24,1.52-3.68,1.52c-1.43,0-2.73-0.58-3.67-1.52l0,0l0,0c-0.94-0.94-1.52-2.24-1.52-3.67c0-1.44,0.58-2.74,1.52-3.68 C91.83,56.77,93.13,56.18,94.57,56.18L94.57,56.18z M95.97,59.99c-0.36-0.36-0.85-0.58-1.4-0.58c-0.55,0-1.04,0.22-1.4,0.58 c-0.36,0.36-0.58,0.85-0.58,1.4c0,0.55,0.22,1.05,0.57,1.4l0.01,0.01c0.35,0.35,0.85,0.57,1.4,0.57c0.55,0,1.04-0.22,1.4-0.58 c0.36-0.36,0.58-0.85,0.58-1.4C96.55,60.84,96.33,60.34,95.97,59.99L95.97,59.99z M33.06,44.03h7.18 c-3.34-1.55-6.25-3.88-8.49-6.75c-0.7,0.37-1.36,0.73-1.98,1.09c-0.76,0.44-1.51,0.92-2.25,1.42c-4.27,2.86-8.07,6.55-10.93,10.83 c-2.64,3.94-4.49,8.38-5.18,13.12c-0.28,1.97-0.29,3.96-0.06,5.94c0.25,2.11,0.76,4.2,1.48,6.22c0.95,2.64,2.26,5.18,3.83,7.52 c1.63,2.43,3.55,4.66,5.62,6.56c0.64,0.58,1.29,1.14,1.96,1.68c0.69,0.55,1.39,1.09,2.12,1.6l0.06,0.04 c1.15,0.89,1.88,1.94,2.12,3.19c0.24,1.22-0.01,2.52-0.82,3.92l-3.77,8.24l0,0c-0.15,0.33-0.22,0.48-0.3,0.63h-0.01 c-0.29,0.6-0.58,1.19-0.4,1.51c0.01,0.02,0.04,0.04,0.07,0.06c0.11,0.06,0.28,0.1,0.51,0.11v0l10.6,0.07 c1.24-0.33,1.83-1.58,2.43-2.88c0.14-0.29,0.27-0.58,0.31-0.66l0.03-0.06c0.21-0.39,0.43-0.85,0.63-1.28 c1.32-2.78,2.14-4.52,6.68-3.82l0.23,0.06c7.1,2.16,13.21,3.03,18.89,2.84c5.65-0.19,10.91-1.44,16.31-3.55 c3.67-1.43,5.39,2.4,6.77,5.49c0.28,0.63,0.54,1.21,0.8,1.67c0.53,0.73,1.07,1.26,1.62,1.57c0.5,0.28,1.03,0.4,1.6,0.35l0.13-0.01 h8.53l0.13,0.01c0.87,0.07,1.39,0.05,1.52-0.08c0,0-0.09-0.2-0.25-0.62l0,0c-0.26-0.57-1.09-2.43-2.15-4.88 c-0.63-1.45-1.25-2.9-1.7-4.01c-0.37-0.9-0.4-0.99-0.43-1.05c-0.8-1.94-1.21-2.94-1.02-4.06c0.22-1.29,1-1.93,2.6-3.25l0.52-0.43 c0.76-0.63,1.75-1.52,2.79-2.51c1.1-1.03,2.22-2.15,3.2-3.15c1.23-1.27,1.83-2.09,2.2-2.61c0.45-0.63,0.7-0.97,1.31-1.27 c0.67-0.34,1.21-0.31,2.4-0.27c0.52,0.02,1.23,0.05,2.45,0.05h2.29c0.93-0.08,1.63-0.33,2.1-0.72c0.45-0.37,0.74-0.93,0.88-1.66 l0.09-0.29c0.73-1.85,1.25-4.7,1.36-7.55c0.1-2.5-0.11-4.94-0.75-6.59c-0.31-0.79-0.59-0.78-1.08-0.74 c-0.33,0.02-0.7,0.05-1.07,0.05h-2.1v-0.01c-1.4,0.03-2.49-0.65-3.31-1.95c-0.6-0.96-1.04-2.29-1.32-3.94 c-0.36-0.94-0.71-1.8-1.06-2.58c-0.38-0.87-0.76-1.68-1.13-2.41c-1.3-2.58-2.61-4.69-4.21-6.52c-1.57-1.81-3.43-3.34-5.81-4.8 c-0.74-0.45-1.46-0.91-2.08-1.41c-0.76-0.61-1.34-1.27-1.58-2.02c-1.03-3.23,1.76-5.16,4.81-7.26c1.71-1.18,3.52-2.42,4.33-3.79 c0.24-0.4,0.35-0.77,0.38-1.1c0.03-0.36-0.04-0.66-0.15-0.88c-0.14-0.28-2.99,0.51-6.41,0.59c-3.65,0.08-7.39,0.3-8.26,0.59 c-1.37,0.46-2.86,1.39-4.26,2.26c-1.63,1.02-3.14,1.96-4.59,2.25c-0.59,0.12-1.2,0.16-1.8,0.12c-0.56-0.04-1.13-0.15-1.71-0.33 c-0.86-0.14-1.74-0.26-2.62-0.38c-0.77-0.1-1.56-0.19-2.35-0.28c-2.15,5.63-6.43,10.21-11.87,12.73h9.48v4.3H33.06V44.03 L33.06,44.03z M59.86,15.52l-6.41,1.01c-0.32-0.81-0.61-1.37-0.87-1.68c-0.26-0.31-0.68-0.63-1.28-0.95v4.97 c3.48,0.93,5.81,1.91,6.98,2.94c1.54,1.39,2.32,3.15,2.32,5.29c0,1.25-0.28,2.4-0.83,3.44c-0.56,1.05-1.27,1.91-2.13,2.62 c-0.86,0.7-1.79,1.2-2.76,1.52c-0.97,0.32-2.17,0.5-3.58,0.56v3.24h-2.5v-3.24c-1.69-0.15-3.05-0.42-4.1-0.81 c-1.05-0.39-1.96-0.94-2.72-1.64c-0.76-0.69-1.35-1.44-1.76-2.25c-0.41-0.8-0.72-1.78-0.93-2.92l6.94-0.8 c0.21,1.13,0.49,1.94,0.84,2.44c0.35,0.5,0.93,0.95,1.73,1.33v-6.08c-2.33-0.64-3.97-1.2-4.94-1.67c-0.97-0.47-1.81-1.23-2.52-2.27 c-0.71-1.04-1.07-2.3-1.07-3.79c0-2.04,0.72-3.75,2.14-5.12c1.43-1.37,3.56-2.14,6.38-2.28V7.69h2.5v1.69 c2.57,0.16,4.54,0.76,5.9,1.82C58.56,12.25,59.45,13.69,59.86,15.52L59.86,15.52z M48.8,13.82c-0.74,0.24-1.25,0.54-1.54,0.89 c-0.29,0.35-0.43,0.77-0.43,1.26c0,0.5,0.15,0.94,0.44,1.31c0.29,0.38,0.8,0.69,1.53,0.94V13.82L48.8,13.82z M51.3,30.76 c0.97-0.22,1.69-0.58,2.14-1.08c0.45-0.5,0.68-1.06,0.68-1.68c0-0.54-0.19-1.04-0.58-1.5c-0.38-0.45-1.13-0.88-2.24-1.26V30.76 L51.3,30.76z"/>
  </symbol>

  <!-- SHIELD: plain trust badge, used for "Browse Workshops" / "Build Your Reputation" -->
  <symbol id="icon-shield" viewBox="0 0 24 24" fill="currentColor">
    <path d="M12 2.2l7.5 3v5.6c0 5.1-3.2 9.2-7.5 10.5-4.3-1.3-7.5-5.4-7.5-10.5V5.2l7.5-3z"/>
  </symbol>

  <!-- SHIELD-CHECK: "Find Trusted Workshops" -->
  <symbol id="icon-shield-check" viewBox="0 0 24 24" fill="none" stroke="currentColor" stroke-width="2.1" stroke-linecap="round" stroke-linejoin="round">
    <path d="M12 3l7 2.8v5.4c0 4.8-3 8.7-7 9.8-4-1.1-7-5-7-9.8V5.8L12 3z"/>
    <path d="M8.5 12.1l2.3 2.3 4.7-4.8"/>
  </symbol>

  <!-- CHART-TREND: "Real Data" -->
<symbol id="icon-chart-trend"
        viewBox="0 0 24 24"
        fill="none"
        stroke="currentColor"
        stroke-width="2"
        stroke-linecap="round"
        stroke-linejoin="round">
    <path d="M3 3v16a2 2 0 0 0 2 2h16"/>
    <path d="M18 17V9"/>
    <path d="M13 17V5"/>
    <path d="M8 17v-3"/>
</symbol>

  <!-- SPEECH-HELP: "Share & Help" -->
<symbol id="icon-speech-help"
        viewBox="0 0 24 24"
        fill="none"
        stroke="currentColor"
        stroke-width="2"
        stroke-linecap="round"
        stroke-linejoin="round">
    <path d="M22 17a2 2 0 0 1-2 2H6.828a2 2 0 0 0-1.414.586l-2.202 2.202A.71.71 0 0 1 2 21.286V5a2 2 0 0 1 2-2h16a2 2 0 0 1 2 2z"/>
    <path d="M12 11h.01"/>
    <path d="M16 11h.01"/>
    <path d="M8 11h.01"/>
</symbol>

  <!-- MEGAPHONE: "Reach More Customers" -->
  <symbol id="icon-megaphone" viewBox="0 0 122.88 113.8" fill="currentColor">
    <path fill-rule="evenodd" clip-rule="evenodd" d="M0,67.6c-.06-5.83,2.16-11,7.37-12.69l.13-.22a2.91,2.91,0,0,1,.6-.8,3.1,3.1,0,0,1,1.05-.5l.29-.11C34.7,44,46.09,30.07,52.64,20.61c0,9.29,2.33,21.4,6.43,33.12,4.21,12,10.29,23.71,17.71,31.76h0c-7.73-2.2-17.43-5-33.21-2.85a15.17,15.17,0,0,0-1.12,5.06,3.9,3.9,0,0,0,1,3l.24.22c1,.91,1.49,1.36,1.71,2.17a9.17,9.17,0,0,1-.13,3.22l-.09.67c-.37,2.93,1.05,3.53,2.46,4.13s2.51,1.08,3.08,2.69a.68.68,0,0,1,0,.4c-.58,3-2.5,4.64-4.43,6.29-.47.41-.95.82-1.36,1.21l-.06,0c-3.92,3.14-6.57,2.3-8.58-.22-1.58-2-2.68-5-3.7-7.81l-.44-1.22a122.88,122.88,0,0,1-4-15.09l-.34-1.5c-.87.24-1.78.51-2.73.79h0c-1.2.35-2.4.73-3.59,1.11l-.38.14a1.21,1.21,0,0,1-1.33,0C13.47,90,8.2,87,4.68,82a25,25,0,0,1-3.41-6.9A25.74,25.74,0,0,1,0,67.6ZM87.81,16.16a3,3,0,0,1-4.23-.6l-.07-.09a3.05,3.05,0,0,1,.63-4.19C89,7.69,93.84,4.07,98.7.56A3.09,3.09,0,0,1,100.92,0a3.06,3.06,0,0,1,2,1.21l0,.05a3,3,0,0,1,.52,2.23,3,3,0,0,1-1.21,2L87.81,16.16Zm15.79,57.7h0a3,3,0,0,1-2.11-.93,3,3,0,0,1-.85-2.14v-.07a3,3,0,0,1,3.07-3c5.37,0,10.83.2,16.2.3a3.07,3.07,0,0,1,3,3.1,3.09,3.09,0,0,1-.93,2.15,3,3,0,0,1-2.16.86l-16.19-.31Zm.47-15.71a3,3,0,0,1-3.25-2.78V55.3a3.07,3.07,0,0,1,2.77-3.23c5-.4,10.09-.83,15.1-1.15a3.06,3.06,0,0,1,3.24,2.81h0a3,3,0,0,1-.73,2.21A3.08,3.08,0,0,1,119.12,57c-4.85.48-10.18.88-15.05,1.14Zm-2.16-14.59a3.06,3.06,0,0,1-3.78-2.11v0a3,3,0,0,1,.27-2.3,3.1,3.1,0,0,1,1.83-1.46c5.21-1.37,10.4-3.05,15.61-4.45a3,3,0,0,1,2.3.27,3.08,3.08,0,0,1,1.45,1.8v0a3.07,3.07,0,0,1-2.1,3.78l-15.59,4.45Zm-6.3-14.32a3.05,3.05,0,0,1-4.09-1.37,3,3,0,0,1-.17-2.33,3.09,3.09,0,0,1,1.53-1.77l15-7.49a3,3,0,0,1,4.09,1.37,3,3,0,0,1,.16,2.33,3.07,3.07,0,0,1-1.53,1.76l-15,7.5ZM58.75,12c.13-.15.27-.29.4-.42a4.46,4.46,0,0,1,1.48-1.11h0a3.58,3.58,0,0,1,2-.08c2.25.36,4.66,2,7.11,4.51,6,6.19,12.32,18,16.82,30.41s7.2,25.36,5.85,33.77c-.51,3.13-1.57,5.66-3.31,7.33l-.09.07a5.64,5.64,0,0,1-2.47,1,2.43,2.43,0,0,0-.25-.2C80.3,83,75,75.9,70.54,67.55c1.14.22,2.6-.63,4-2.08,7-7.38,3.56-20.28-5.17-23.27C65.81,41,62.27,41,60.87,41.69l-.15.08C57.52,29.42,56.61,18,58.75,12Z"/>
  </symbol>

  <!-- SCALE: "Fair Competition" (balance scale) -->
  <symbol id="icon-scale" viewBox="0 0 24 24" fill="currentColor">
    <rect x="11.2" y="3.2" width="1.6" height="14.3" rx="0.8"/>
    <rect x="4" y="6" width="16" height="1.6" rx="0.8"/>
    <rect x="7.3" y="19" width="9.4" height="1.7" rx="0.85"/>
    <path d="M4.8 7.3L2.4 12.4a2.5 2.5 0 004.8 0z" fill="none" stroke="currentColor" stroke-width="1.5" stroke-linejoin="round"/>
    <path d="M19.2 7.3l-2.4 5.1a2.5 2.5 0 004.8 0z" fill="none" stroke="currentColor" stroke-width="1.5" stroke-linejoin="round"/>
  </symbol>

<symbol id="icon-handshake"
        viewBox="0 0 24 24"
        fill="none"
        stroke="currentColor"
        stroke-width="2"
        stroke-linecap="round"
        stroke-linejoin="round">

    <path d="m11 17 2 2a1 1 0 1 0 3-3"/>
    <path d="m14 14 2.5 2.5a1 1 0 1 0 3-3l-3.88-3.88a3 3 0 0 0-4.24 0l-.88.88a1 1 0 1 1-3-3l2.81-2.81a5.79 5.79 0 0 1 7.06-.87l.47.28a2 2 0 0 0 1.42.25L21 4"/>
    <path d="m21 3 1 11h-2"/>
    <path d="M3 3 2 14l6.5 6.5a1 1 0 1 0 3-3"/>
    <path d="M3 4h8"/>

</symbol>

  <!-- PENCIL: edit action, used for "Update Details" -->
  <symbol id="icon-pencil" viewBox="0 0 121.48 122.88" fill="currentColor">
    <path fill-rule="evenodd" clip-rule="evenodd" d="M96.84,2.22l22.42,22.42c2.96,2.96,2.96,7.8,0,10.76l-12.4,12.4L73.68,14.62l12.4-12.4 C89.04-0.74,93.88-0.74,96.84,2.22L96.84,2.22z M70.18,52.19L70.18,52.19l0,0.01c0.92,0.92,1.38,2.14,1.38,3.34 c0,1.2-0.46,2.41-1.38,3.34v0.01l-0.01,0.01L40.09,88.99l0,0h-0.01c-0.26,0.26-0.55,0.48-0.84,0.67h-0.01 c-0.3,0.19-0.61,0.34-0.93,0.45c-1.66,0.58-3.59,0.2-4.91-1.12h-0.01l0,0v-0.01c-0.26-0.26-0.48-0.55-0.67-0.84v-0.01 c-0.19-0.3-0.34-0.61-0.45-0.93c-0.58-1.66-0.2-3.59,1.11-4.91v-0.01l30.09-30.09l0,0h0.01c0.92-0.92,2.14-1.38,3.34-1.38 c1.2,0,2.41,0.46,3.34,1.38L70.18,52.19L70.18,52.19L70.18,52.19z M45.48,109.11c-8.98,2.78-17.95,5.55-26.93,8.33 C-2.55,123.97-2.46,128.32,3.3,108l9.07-32v0l-0.03-0.03L67.4,20.9l33.18,33.18l-55.07,55.07L45.48,109.11L45.48,109.11z M18.03,81.66l21.79,21.79c-5.9,1.82-11.8,3.64-17.69,5.45c-13.86,4.27-13.8,7.13-10.03-6.22L18.03,81.66L18.03,81.66z"/>
  </symbol>

  <!-- CHECK: bare checkmark, used in bullet / tip lists -->
  <symbol id="icon-check" viewBox="0 0 24 24" fill="none" stroke="currentColor" stroke-width="2.6" stroke-linecap="round" stroke-linejoin="round">
    <path d="M5 12.5l4.5 4.5L19 7"/>
  </symbol>

  <!-- CHECK-CIRCLE: status / "Approved" badge -->
  <symbol id="icon-check-circle" viewBox="0 0 24 24" fill="none" stroke="currentColor" stroke-width="2" stroke-linecap="round" stroke-linejoin="round">
    <circle cx="12" cy="12" r="9"/>
    <path d="M8 12.3l2.6 2.6L16.2 9"/>
  </symbol>

  <!-- BUILDING: storefront / workshop premises, used for "View My Listing" -->
<symbol id="icon-workshops"
        viewBox="0 0 24 24"
        fill="none"
        stroke="currentColor"
        stroke-width="2"
        stroke-linecap="round"
        stroke-linejoin="round">
    <path d="M18 21V10a1 1 0 0 0-1-1H7a1 1 0 0 0-1 1v11"/>
    <path d="M22 19a2 2 0 0 1-2 2H4a2 2 0 0 1-2-2V8a2 2 0 0 1 1.132-1.803l7.95-3.974a2 2 0 0 1 1.837 0l7.948 3.974A2 2 0 0 1 22 8z"/>
    <path d="M6 13h12"/>
    <path d="M6 17h12"/>
</symbol>
<symbol id="icon-building" viewBox="0 0 122.88 119.45" fill="currentColor">
    <path fill-rule="evenodd" clip-rule="evenodd" d="M11.9,40.47h99.81v2.84H11.9V40.47L11.9,40.47z M89.51,82.09v30.41H82.4v-4.7H40.48v4.7l-7.11,0V82.09h-2.45 v-4.68h5.98l3.33-10.37c0.98-3.05,2.62-5.83,5.83-5.83h31.98c3.21,0,5.06,2.72,5.83,5.83l2.58,10.37h5.5v4.68H89.51L89.51,82.09 L89.51,82.09z M50.79,98.42h21v4.95l-21,0V98.42L50.79,98.42L50.79,98.42z M35.75,86.89c5.35,0.17,8.62,2.41,9.46,7.08h-9.46V86.89 L35.75,86.89z M86.46,86.89c-5.35,0.17-8.62,2.41-9.46,7.08h9.46V86.89L86.46,86.89z M39.46,77.42h43.97l-1.88-8.7 c-0.52-2.39-2-4.44-4.44-4.44H46.69c-2.44,0-3.7,2.12-4.44,4.44L39.46,77.42L39.46,77.42L39.46,77.42z M111.71,48.15v66.46H11.9 V48.15H111.71L111.71,48.15z M7.06,42.79H2.42H0v-2.42V28.44v-1.56l1.44-0.64l57.68-25.8L60.1,0l0.97,0.43l60.36,26.77l1.45,0.64 v1.57v10.95v2.42h-2.42h-3.91v74.24v2.42h-2.42H9.48H7.06l0-2.42V42.79L7.06,42.79z"/>
</symbol>
  <symbol id="icon-car"
        viewBox="0 0 16 16"
        fill="currentColor">
    <path d="M2.52 3.515A2.5 2.5 0 0 1 4.82 2h6.362c1 0 1.904 0.596 2.298 1.515l0.792 1.848c0.075 0.175 0.21 0.319 0.38 0.404 0.5 0.25 0.855 0.715 0.965 1.262l0.335 1.679q0.05 0.242 0.049 0.49v0.413c0 0.814-.39 1.543-1 1.997V13.5a0.5 0.5 0 0 1-.5.5h-2a0.5 0.5 0 0 1-.5-.5v-1.338c-1.292.048-2.745.088-4 .088s-2.708-.04-4-.088V13.5a0.5.5 0 0 1-.5.5h-2a0.5.5 0 0 1-.5-.5v-1.892c-.61-.454-1-1.183-1-1.997v-.413a2.5 2.5 0 0 1 .049-.49l.335-1.68c.11-.546.465-1.012.964-1.261a.8.8 0 0 0 .381-.404l.792-1.848ZM3 10a1 1 0 1 0 0-2 1 1 0 0 0 0 2m10 0a1 1 0 1 0 0-2 1 1 0 0 0 0 2M6 8a1 1 0 0 0 0 2h4a1 1 0 1 0 0-2zM2.906 5.189a.51.51 0 0 0 .497.731c.91-.073 3.35-.17 4.597-.17s3.688.097 4.597.17a.51.51 0 0 0 .497-.731l-.956-1.913A.5.5 0 0 0 11.691 3H4.309a.5.5 0 0 0-.447.276z"/>
</symbol>
  <!-- TROPHY: achievement / thank-you banner -->
  <symbol id="icon-trophy" viewBox="0 0 24 24" fill="currentColor">
    <path d="M7 3a1 1 0 00-1 1v1H4.5A1.5 1.5 0 003 6.5v1A3.5 3.5 0 006.5 11h.2A5.02 5.02 0 0011 14.9V17H9a1 1 0 000 2h6a1 1 0 000-2h-2v-2.1a5.02 5.02 0 004.3-3.9h.2A3.5 3.5 0 0021 7.5v-1A1.5 1.5 0 0019.5 5H18V4a1 1 0 00-1-1H7zm-1 4v2.5A1.5 1.5 0 015 8v-1h1zm12 0h1v1a1.5 1.5 0 01-1 1.42V7z"/>
    <path d="M9 20h6a1 1 0 011 1v.2a.8.8 0 01-.8.8H8.8a.8.8 0 01-.8-.8V21a1 1 0 011-1z"/>
</symbol>

<!-- CHAT-DOTS: message bubble with a typing indicator, used for the
       admin/partner chat entry point -->
<symbol id="icon-chat-dots" viewBox="0 0 122.88 108.25" fill="currentColor">
    <path fill-rule="evenodd" clip-rule="evenodd" d="M51.16,93.74c13,12.49,31.27,16.27,49.59,8.46l15.37,6L111,96.13c17.08-13.68,14-32.48,1.44-45.3a44.38,44.38,0,0,1-4.88,13.92A51.45,51.45,0,0,1,93.45,80.84a62.51,62.51,0,0,1-19.73,10,71.07,71.07,0,0,1-22.56,2.92ZM74.74,36.13a6.68,6.68,0,1,1-6.68,6.68,6.68,6.68,0,0,1,6.68-6.68Zm-44.15,0a6.68,6.68,0,1,1-6.68,6.68,6.68,6.68,0,0,1,6.68-6.68Zm22.08,0A6.68,6.68,0,1,1,46,42.81a6.68,6.68,0,0,1,6.68-6.68ZM54,0H54c14.42.44,27.35,5.56,36.6,13.49,9.41,8.07,15,19,14.7,31v0c-.36,12-6.66,22.61-16.55,30.11C79,82.05,65.8,86.4,51.38,86a64.68,64.68,0,0,1-11.67-1.4,61,61,0,0,1-10-3.07L7.15,90.37l7.54-17.92A43.85,43.85,0,0,1,4,59,36.2,36.2,0,0,1,0,41.46c.36-12,6.66-22.61,16.55-30.12C26.3,4,39.53-.4,54,0ZM53.86,5.2h0C40.59,4.82,28.52,8.77,19.69,15.46,11,22,5.5,31.28,5.19,41.6A31.2,31.2,0,0,0,8.61,56.67a39.31,39.31,0,0,0,10.81,13L21,70.87,16.68,81.05l13.08-5.14,1,.42a55.59,55.59,0,0,0,10.05,3.18A59,59,0,0,0,51.52,80.8c13.22.39,25.29-3.56,34.12-10.26C94.31,64,99.83,54.73,100.15,44.4v0c.3-10.32-4.65-19.85-12.9-26.92C78.85,10.26,67.06,5.6,53.87,5.2Z"/>
</symbol>
  <!-- ALERT: warning triangle, used for the admin error-log indicator -->
  <symbol id="icon-alert" viewBox="0 0 24 24" fill="none" stroke="currentColor" stroke-width="1.8" stroke-linecap="round" stroke-linejoin="round">
    <path d="M12 3.5 L21.5 20 H2.5 Z"/>
    <line x1="12" y1="9.5" x2="12" y2="14"/>
    <circle cx="12" cy="17" r="0.6" fill="currentColor" stroke="none"/>
  </symbol>
  <!-- MORE: three-dot overflow menu trigger, used on mobile headers -->
  <symbol id="icon-more" viewBox="0 0 24 24" fill="currentColor">
    <circle cx="5" cy="12" r="2"/>
    <circle cx="12" cy="12" r="2"/>
    <circle cx="19" cy="12" r="2"/>
  </symbol>

</svg>
