<svg xmlns="http://www.w3.org/2000/svg" style="display:none;">

  <!-- ============================================================ -->
  <!-- EXISTING VERIYO ICONS (unchanged, carried over from icons.svg) -->
  <!-- ============================================================ -->

  <!-- HOME: solid house with roof, walls, and door -->
  <symbol id="icon-home" viewBox="0 0 24 24" fill="currentColor">
    <path d="M12 2.1L1 11h3v11h6v-7h4v7h6V11h3L12 2.1zm0 2.6l7 6.3V20h-3v-7H8v7H5V11l7-6.3z"/>
    <path d="M12 3L2 11.5h2.5V21h5.5v-6.5h4V21h5.5V11.5H22L12 3z"/>
  </symbol>

  <!-- PRICES: bold Rand R in a solid circle -->
  <symbol id="icon-prices" viewBox="0 0 24 24" fill="currentColor">
    <path d="M11.5 2c-5.25 0-9.5 4.25-9.5 9.5S6.25 21 11.5 21 21 16.75 21 11.5 16.75 2 11.5 2zm1.25 14.5v1.25h-2.5V16.5c-1.5-.25-2.75-1-3.5-2.25l1.75-1c.5.75 1.25 1.25 2.25 1.25.75 0 1.5-.5 1.5-1.25 0-.5-.25-.75-1.75-1.25-2-.75-3.25-1.5-3.25-3.25 0-1.5 1.25-2.75 3-3V4.25h2.5V5.5c1.25.25 2.25 1 2.75 2l-1.75 1c-.25-.75-.75-1.25-1.75-1.25-.75 0-1.25.5-1.25 1s.25.75 1.75 1.25c2.25.75 3.25 1.75 3.25 3.25 0 1.75-1.25 3-3 3.25z"/>
  </symbol>

  <!-- REPORT: solid clipboard with lines -->
  <symbol id="icon-report" viewBox="0 0 24 24" fill="currentColor">
    <path d="M19 3h-4.18C14.4 1.84 13.3 1 12 1s-2.4.84-2.82 2H5a2 2 0 00-2 2v16a2 2 0 002 2h14a2 2 0 002-2V5a2 2 0 00-2-2zm-7 0a1 1 0 110 2 1 1 0 010-2zm-2 14H7v-2h3v2zm6 0h-4v-2h4v2zm0-4H7v-2h9v2zm0-4H7V7h9v2z"/>
  </symbol>

  <!-- WORKSHOPS: solid wrench -->
  <symbol id="icon-workshops" viewBox="0 0 24 24" fill="currentColor">
    <path d="M22.7 19l-9.1-9.1c.9-2.3.4-5-1.5-6.9-2-2-5-2.4-7.4-1.3L9 6 6 9 1.6 4.7C.4 7.1.9 10.1 2.9 12.1c1.9 1.9 4.6 2.4 6.9 1.5l9.1 9.1c.4.4 1 .4 1.4 0l2.3-2.3c.5-.4.5-1.1.1-1.4z"/>
  </symbol>

  <!-- OVERVIEW: solid bar chart, 3 bars increasing height -->
  <symbol id="icon-overview" viewBox="0 0 24 24" fill="currentColor">
    <path d="M5 20V10H2v10h3zm7 0V4h-3v16h3zm7 0v-7h-3v7h3zM2 22h20v-2H2v2z"/>
  </symbol>

  <!-- LISTING: solid ID card with avatar circle and text lines -->
  <symbol id="icon-listing" viewBox="0 0 24 24" fill="currentColor">
    <path d="M20 4H4a2 2 0 00-2 2v12a2 2 0 002 2h16a2 2 0 002-2V6a2 2 0 00-2-2zM8 13a2.5 2.5 0 110-5 2.5 2.5 0 010 5zm8-1h-4v-2h4v2zm0-3h-4V7h4v2z"/>
  </symbol>

  <!-- ADD LISTING: solid circle with bold plus -->
  <symbol id="icon-addlisting" viewBox="0 0 24 24" fill="currentColor">
    <path d="M12 2C6.477 2 2 6.477 2 12s4.477 10 10 10 10-4.477 10-10S17.523 2 12 2zm5 11h-4v4h-2v-4H7v-2h4V7h2v4h4v2z"/>
  </symbol>

  <!-- STAR: solid 5-point star, used for the rating badge -->
  <symbol id="icon-star" viewBox="0 0 24 24" fill="currentColor">
    <path d="M12 2.5l2.9 6.1 6.6.9-4.8 4.7 1.2 6.6L12 17.6l-5.9 3.2 1.2-6.6-4.8-4.7 6.6-.9L12 2.5z"/>
  </symbol>

  <!-- LOCATION: solid map pin -->
  <symbol id="icon-location" viewBox="0 0 24 24" fill="currentColor">
    <path d="M12 2C7.58 2 4 5.58 4 10c0 5.25 6.4 11.36 7.16 12.06.24.22.62.22.86 0C13.6 21.36 20 15.25 20 10c0-4.42-3.58-8-8-8zm0 10.5A2.5 2.5 0 1112 7.5a2.5 2.5 0 010 5z"/>
  </symbol>

  <!-- CLOCK: solid ring with hour/minute hands -->
  <symbol id="icon-clock" viewBox="0 0 24 24" fill="none" stroke="currentColor" stroke-width="2.2" stroke-linecap="round" stroke-linejoin="round">
    <circle cx="12" cy="12" r="8"/>
    <path d="M12 12V8"/>
    <path d="M12 12L15.5 14.5"/>
    <circle cx="12" cy="12" r="0.8" fill="currentColor" stroke="none"/>
  </symbol>

  <!-- CALENDAR: page with two hanger rings and a 3x2 grid of 6 dots -->
  <symbol id="icon-calendar" viewBox="0 0 24 24" fill="none" stroke="currentColor" stroke-width="2.2" stroke-linecap="round" stroke-linejoin="round">
    <rect x="3" y="5" width="18" height="16" rx="2"/>
    <path d="M8 3v4M16 3v4M3 9h18"/>
    <circle cx="8" cy="13" r="0.8" fill="currentColor" stroke="none"/>
    <circle cx="12" cy="13" r="0.8" fill="currentColor" stroke="none"/>
    <circle cx="16" cy="13" r="0.8" fill="currentColor" stroke="none"/>
    <circle cx="8" cy="17" r="0.8" fill="currentColor" stroke="none"/>
    <circle cx="12" cy="17" r="0.8" fill="currentColor" stroke="none"/>
    <circle cx="16" cy="17" r="0.8" fill="currentColor" stroke="none"/>
  </symbol>

  <!-- CHAT: solid speech bubble with tail -->
  <symbol id="icon-chat" viewBox="0 0 24 24" fill="currentColor">
    <path d="M5 6.5C5 4.6 6.6 3 8.5 3h7C18.5 3 20 4.5 20 6.5v5c0 2-1.5 3.5-3.5 3.5H11l-4.5 4v-4H8.5C6.6 15 5 13.4 5 11.5z"/>
  </symbol>

  <!-- TAG: solid price tag with hole -->
  <symbol id="icon-tag" viewBox="0 0 24 24" fill="currentColor">
    <path d="M20.6 11.1L12.9 3.4A2 2 0 0011.5 2.8H4a2 2 0 00-2 2v7.5c0 .53.21 1.04.59 1.41l7.7 7.7c.78.78 2.05.78 2.83 0l7.48-7.48c.78-.78.78-2.05 0-2.83zM7 8a1.5 1.5 0 110-3 1.5 1.5 0 010 3z"/>
  </symbol>

  <!-- PEOPLE: two overlapping figures, line style -->
  <symbol id="icon-people" viewBox="0 0 24 24" fill="none" stroke="currentColor" stroke-width="2.1" stroke-linecap="round" stroke-linejoin="round">
    <circle cx="9" cy="8" r="2.4"/>
    <circle cx="17" cy="9" r="2"/>
    <path d="M4 18c0-3 2.5-5 5-5s5 2 5 5"/>
    <path d="M14 18c.2-2.3 2-4 4.2-4S22 15.8 22 18"/>
  </symbol>

  <!-- CHEVRON DOWN: accordion toggle indicator -->
  <symbol id="icon-chevron-down" viewBox="0 0 24 24" fill="currentColor">
    <path d="M12 15.3L5.7 9l1.4-1.4L12 12.5l4.9-4.9L18.3 9z"/>
  </symbol>

  <!-- ============================================================ -->
  <!-- NEW ICONS — designed to match the icon set above             -->
  <!-- (needed for the Motorist / Workshop landing + dashboard mocks) -->
  <!-- ============================================================ -->

  <!-- SEARCH: magnifying glass, used for "Check Repair Prices" + search bars -->
  <symbol id="icon-search" viewBox="0 0 24 24" fill="none" stroke="currentColor" stroke-width="2.2" stroke-linecap="round" stroke-linejoin="round">
    <circle cx="10.5" cy="10.5" r="6.5"/>
    <path d="M19.5 19.5l-4.8-4.8"/>
  </symbol>

  <!-- BELL: notification bell, used in navbar -->
  <symbol id="icon-bell" viewBox="0 0 24 24" fill="currentColor">
    <path d="M12 2.5a1.25 1.25 0 00-1.25 1.25v.55C7.9 4.85 6 7.3 6 10.2v4.1l-1.6 2.4a1 1 0 00.83 1.55h13.54a1 1 0 00.83-1.55L18 14.3v-4.1c0-2.9-1.9-5.35-4.75-5.9v-.55A1.25 1.25 0 0012 2.5zm0 19a2.4 2.4 0 002.35-2H9.65A2.4 2.4 0 0012 21.5z"/>
  </symbol>

  <!-- USER: generic profile avatar placeholder -->
  <symbol id="icon-user" viewBox="0 0 24 24" fill="currentColor">
    <path d="M12 12.5a5 5 0 100-10 5 5 0 000 10zm0 2c-4.4 0-9 2.2-9 5.5V21a1 1 0 001 1h16a1 1 0 001-1v-1c0-3.3-4.6-5.5-9-5.5z"/>
  </symbol>

  <!-- PIGGY BANK: "Save Money" -->
  <symbol id="icon-piggybank" viewBox="0 0 24 24" fill="currentColor">
    <ellipse cx="10.8" cy="14" rx="7" ry="5.2"/>
    <circle cx="17.1" cy="12.9" r="2.6"/>
    <path d="M5.2 10l2.5-1.7.3 3.1z"/>
    <rect x="7.2" y="18.3" width="2.1" height="2.7" rx="0.9"/>
    <rect x="12.4" y="18.3" width="2.1" height="2.7" rx="0.9"/>
    <path d="M3.4 12.2c-.9.2-1.5 1.2-1.2 2.1" fill="none" stroke="currentColor" stroke-width="1.4" stroke-linecap="round"/>
    <rect x="9" y="8.6" width="3.4" height="1.3" rx="0.6" fill="none" stroke="currentColor" stroke-width="1.1"/>
  </symbol>

  <!-- SHIELD: plain trust badge, used for "Browse Workshops" / "Build Your Reputation" -->
  <symbol id="icon-shield" viewBox="0 0 24 24" fill="currentColor">
    <path d="M12 2.2l7.5 3v5.6c0 5.1-3.2 9.2-7.5 10.5-4.3-1.3-7.5-5.4-7.5-10.5V5.2l7.5-3z"/>
  </symbol>

  <!-- SHIELD-CHECK: "Find Trusted Workshops" -->
  <symbol id="icon-shield-check" viewBox="0 0 24 24" fill="none" stroke="currentColor" stroke-width="2.1" stroke-linecap="round" stroke-linejoin="round">
    <path d="M12 3l7 2.8v5.4c0 4.8-3 8.7-7 9.8-4-1.1-7-5-7-9.8V5.8L12 3z"/>
    <path d="M8.5 12.1l2.3 2.3 4.7-4.8"/>
  </symbol>

  <!-- CHART-TREND: "Real Data" -->
  <symbol id="icon-chart-trend" viewBox="0 0 24 24" fill="currentColor">
    <path d="M3 20a1 1 0 001 1h16a1 1 0 000-2H5V4a1 1 0 00-2 0v16z"/>
    <path d="M7 18a1 1 0 01-1-1v-3.6a1 1 0 012 0V17a1 1 0 01-1 1zm4.5 0a1 1 0 01-1-1V9.6a1 1 0 012 0V17a1 1 0 01-1 1zM16 18a1 1 0 01-1-1v-5.6a1 1 0 012 0V17a1 1 0 01-1 1zm4.5 0a1 1 0 01-1-1V6.6a1 1 0 012 0V17a1 1 0 01-1 1z"/>
  </symbol>

  <!-- SPEECH-HELP: "Share & Help" -->
  <symbol id="icon-speech-help" viewBox="0 0 24 24" fill="none" stroke="currentColor" stroke-width="2.1" stroke-linecap="round" stroke-linejoin="round">
    <path d="M4 6.8C4 5.25 5.25 4 6.8 4h10.4C18.75 4 20 5.25 20 6.8v5.4c0 1.55-1.25 2.8-2.8 2.8H10l-4 3.4v-3.4C4.9 15 4 14.1 4 12.9z"/>
    <path d="M12 7.8c-.7-.9-2.1-1-2.8-.15-.6.75-.5 1.75.2 2.45L12 12.6l2.6-2.5c.7-.7.8-1.7.2-2.45-.7-.85-2.1-.75-2.8.15z"/>
  </symbol>

  <!-- MEGAPHONE: "Reach More Customers" -->
  <symbol id="icon-megaphone" viewBox="0 0 24 24" fill="currentColor">
    <path d="M20 4.3a1 1 0 00-1.55-.83L13 6.9H5a2 2 0 00-2 2v2.6a2 2 0 002 2h.2l.9 4.2a1.5 1.5 0 001.47 1.2h1.2a1.5 1.5 0 001.46-1.85l-.75-3.55H13l5.45 3.43A1 1 0 0020 15.7V4.3z"/>
  </symbol>

  <!-- SCALE: "Fair Competition" (balance scale) -->
  <symbol id="icon-scale" viewBox="0 0 24 24" fill="currentColor">
    <rect x="11.2" y="3.2" width="1.6" height="14.3" rx="0.8"/>
    <rect x="4" y="6" width="16" height="1.6" rx="0.8"/>
    <rect x="7.3" y="19" width="9.4" height="1.7" rx="0.85"/>
    <path d="M4.8 7.3L2.4 12.4a2.5 2.5 0 004.8 0z" fill="none" stroke="currentColor" stroke-width="1.5" stroke-linejoin="round"/>
    <path d="M19.2 7.3l-2.4 5.1a2.5 2.5 0 004.8 0z" fill="none" stroke="currentColor" stroke-width="1.5" stroke-linejoin="round"/>
  </symbol>

<symbol id="icon-handshake"
        viewBox="0 0 24 24"
        fill="none"
        stroke="currentColor"
        stroke-width="2"
        stroke-linecap="round"
        stroke-linejoin="round">

    <path d="m11 17 2 2a1 1 0 1 0 3-3"/>
    <path d="m14 14 2.5 2.5a1 1 0 1 0 3-3l-3.88-3.88a3 3 0 0 0-4.24 0l-.88.88a1 1 0 1 1-3-3l2.81-2.81a5.79 5.79 0 0 1 7.06-.87l.47.28a2 2 0 0 0 1.42.25L21 4"/>
    <path d="m21 3 1 11h-2"/>
    <path d="M3 3 2 14l6.5 6.5a1 1 0 1 0 3-3"/>
    <path d="M3 4h8"/>

</symbol>

  <!-- PENCIL: edit action, used for "Update Details" -->
  <symbol id="icon-pencil" viewBox="0 0 24 24" fill="currentColor">
    <path d="M3 17.25V21h3.75L17.81 9.94l-3.75-3.75L3 17.25zM19.7 8.04a1 1 0 000-1.41l-2.33-2.34a1 1 0 00-1.41 0l-1.84 1.83 3.75 3.75 1.83-1.83z"/>
  </symbol>

  <!-- CHECK: bare checkmark, used in bullet / tip lists -->
  <symbol id="icon-check" viewBox="0 0 24 24" fill="none" stroke="currentColor" stroke-width="2.6" stroke-linecap="round" stroke-linejoin="round">
    <path d="M5 12.5l4.5 4.5L19 7"/>
  </symbol>

  <!-- CHECK-CIRCLE: status / "Approved" badge -->
  <symbol id="icon-check-circle" viewBox="0 0 24 24" fill="none" stroke="currentColor" stroke-width="2" stroke-linecap="round" stroke-linejoin="round">
    <circle cx="12" cy="12" r="9"/>
    <path d="M8 12.3l2.6 2.6L16.2 9"/>
  </symbol>

  <!-- BUILDING: storefront / workshop premises, used for "View My Listing" -->
  <symbol id="icon-building" viewBox="0 0 24 24" fill="currentColor">
    <path d="M4 21V9.5a1 1 0 01.45-.83l7-4.67a1 1 0 011.1 0l7 4.67a1 1 0 01.45.83V21a1 1 0 01-1 1h-4a1 1 0 01-1-1v-4h-3v4a1 1 0 01-1 1H5a1 1 0 01-1-1zm5-8h2v-2H9v2zm4 0h2v-2h-2v2zM9 9h2V7H9v2zm4 0h2V7h-2v2z"/>
  </symbol>

  <!-- TROPHY: achievement / thank-you banner -->
  <symbol id="icon-trophy" viewBox="0 0 24 24" fill="currentColor">
    <path d="M7 3a1 1 0 00-1 1v1H4.5A1.5 1.5 0 003 6.5v1A3.5 3.5 0 006.5 11h.2A5.02 5.02 0 0011 14.9V17H9a1 1 0 000 2h6a1 1 0 000-2h-2v-2.1a5.02 5.02 0 004.3-3.9h.2A3.5 3.5 0 0021 7.5v-1A1.5 1.5 0 0019.5 5H18V4a1 1 0 00-1-1H7zm-1 4v2.5A1.5 1.5 0 015 8v-1h1zm12 0h1v1a1.5 1.5 0 01-1 1.42V7z"/>
    <path d="M9 20h6a1 1 0 011 1v.2a.8.8 0 01-.8.8H8.8a.8.8 0 01-.8-.8V21a1 1 0 011-1z"/>
  </symbol>

</svg>
